<?xml version="1.0" standalone="no"?>
<!DOCTYPE svg PUBLIC "-//W3C//DTD SVG 20010904//EN"
 "http://www.w3.org/TR/2001/REC-SVG-20010904/DTD/svg10.dtd">
<svg version="1.0" xmlns="http://www.w3.org/2000/svg"
 width="500.000000pt" height="500.000000pt" viewBox="0 0 500.000000 500.000000"
 preserveAspectRatio="xMidYMid meet">

<g transform="translate(0.000000,500.000000) scale(0.100000,-0.100000)"
fill="#000000" stroke="none">
<path d="M10 2500 l0 -1640 375 0 375 0 0 635 0 635 483 0 484 0 600 778 c331
427 680 879 777 1005 l176 227 -645 0 -645 0 0 -630 0 -630 -615 0 -615 0 0
630 0 630 -375 0 -375 0 0 -1640z"/>
<path d="M3401 3772 l-283 -367 279 -6 c294 -6 339 -12 423 -62 51 -29 109
-87 130 -127 43 -85 50 -230 14 -319 -19 -47 -86 -110 -149 -141 -102 -50
-158 -54 -630 -55 l-440 0 -5 108 -5 107 -372 -482 -373 -482 0 -543 0 -543
378 2 377 3 3 543 2 542 327 -2 327 -3 291 -461 c159 -253 313 -498 342 -542
l52 -82 447 0 c366 0 445 2 441 13 -3 7 -183 287 -401 621 -218 335 -396 611
-396 616 0 4 28 22 63 40 188 98 362 284 427 458 57 150 64 194 64 417 1 186
-2 220 -22 298 -75 298 -238 514 -497 662 -131 74 -321 134 -475 148 l-56 5
-283 -366z"/>
</g>
</svg>
